<svg width="1200" height="900" viewBox="0 0 1200 900" fill="none" xmlns="http://www.w3.org/2000/svg">
<rect width="1200" height="900" fill="#050812"/>
<ellipse cx="601" cy="192" rx="352" ry="142" fill="url(#paint0_radial_1_2)" fill-opacity="0.45"/>
<rect x="104" y="164" width="992" height="572" rx="36" fill="#0A1020" stroke="#24324D" stroke-width="2"/>
<rect x="152" y="214" width="896" height="474" rx="28" fill="#0D1730"/>
<rect x="200" y="270" width="360" height="210" rx="24" fill="url(#paint1_linear_1_2)"/>
<rect x="588" y="270" width="260" height="92" rx="18" fill="#12213F"/>
<rect x="588" y="382" width="400" height="92" rx="18" fill="#12213F"/>
<rect x="588" y="494" width="322" height="92" rx="18" fill="#12213F"/>
<g opacity="0.8">
<rect x="208" y="520" width="120" height="110" rx="18" fill="#13223E"/>
<rect x="346" y="520" width="120" height="110" rx="18" fill="#13223E"/>
<rect x="484" y="520" width="120" height="110" rx="18" fill="#13223E"/>
</g>
<path d="M200 234H996" stroke="#22314D" stroke-width="2"/>
<circle cx="230" cy="198" r="8" fill="#67E8F9"/>
<circle cx="258" cy="198" r="8" fill="#60A5FA"/>
<circle cx="286" cy="198" r="8" fill="#A78BFA"/>
<defs>
<radialGradient id="paint0_radial_1_2" cx="0" cy="0" r="1" gradientUnits="userSpaceOnUse" gradientTransform="translate(601 192) rotate(90) scale(142 352)">
<stop stop-color="#22D3EE"/>
<stop offset="1" stop-color="#050812" stop-opacity="0"/>
</radialGradient>
<linearGradient id="paint1_linear_1_2" x1="200" y1="270" x2="560" y2="480" gradientUnits="userSpaceOnUse">
<stop stop-color="#22D3EE"/>
<stop offset="1" stop-color="#8B5CF6"/>
</linearGradient>
</defs>
</svg>
