<svg xmlns="http://www.w3.org/2000/svg" viewBox="0 0 800 800" role="img" aria-label="Founder placeholder">
  <defs>
    <linearGradient id="g" x1="0" y1="0" x2="1" y2="1">
      <stop offset="0%" stop-color="#0f172a"/>
      <stop offset="100%" stop-color="#1e293b"/>
    </linearGradient>
  </defs>
  <rect width="800" height="800" rx="80" fill="url(#g)"/>
  <circle cx="400" cy="315" r="135" fill="#94a3b8" opacity="0.22"/>
  <path d="M250 618c22-98 97-154 150-154s128 56 150 154" fill="#94a3b8" opacity="0.22"/>
  <circle cx="400" cy="295" r="98" fill="#e2e8f0" opacity="0.88"/>
  <path d="M330 285c18-48 47-72 70-72s52 24 70 72c10 27 5 61-11 80-17 21-41 32-59 32s-42-11-59-32c-16-19-21-53-11-80z" fill="#cbd5e1"/>
  <path d="M277 562c31-69 87-104 123-104s92 35 123 104" fill="#cbd5e1" opacity="0.82"/>
  <rect x="190" y="650" width="420" height="54" rx="27" fill="#475569" opacity="0.86"/>
</svg>
